<!DOCTYPE svg PUBLIC "-//W3C//DTD SVG 1.1//EN" "http://www.w3.org/Graphics/SVG/1.1/DTD/svg11.dtd">
<svg width="200" height="200" viewBox="0 0 200 200" xmlns="http://www.w3.org/2000/svg">
  <defs>
    <linearGradient id="logoGradient" x1="0%" y1="0%" x2="100%" y2="100%">
      <stop offset="0%" style="stop-color:#0369a1;stop-opacity:1" />
      <stop offset="100%" style="stop-color:#0ea5e9;stop-opacity:1" />
    </linearGradient>
  </defs>
  
  <!-- Background circle -->
  <circle cx="100" cy="100" r="95" fill="url(#logoGradient)" />
  
  <!-- Heart symbol representing life -->
  <path d="M100 160 C80 140, 50 110, 50 80 C50 60, 70 40, 100 60 C130 40, 150 60, 150 80 C150 110, 120 140, 100 160 Z" fill="white" opacity="0.9"/>
  
  <!-- Hand representing support -->
  <path d="M70 100 Q80 90, 90 100 L90 120 Q85 130, 75 125 L65 115 Q65 105, 70 100" fill="white" opacity="0.8"/>
  <path d="M110 100 Q120 90, 130 100 L130 120 Q125 130, 115 125 L105 115 Q105 105, 110 100" fill="white" opacity="0.8"/>
  
  <!-- Text elements -->
  <text x="100" y="45" text-anchor="middle" fill="white" font-family="Arial, sans-serif" font-size="16" font-weight="bold">LIFE</text>
  <text x="100" y="185" text-anchor="middle" fill="white" font-family="Arial, sans-serif" font-size="16" font-weight="bold">LIMB</text>
</svg>